<svg width="24" height="24" viewBox="0 0 24 24" fill="none" xmlns="http://www.w3.org/2000/svg">
<g clip-path="url(#clip0_1469_756)">
<path d="M20 0H4C1.79086 0 0 1.79086 0 4V20C0 22.2091 1.79086 24 4 24H20C22.2091 24 24 22.2091 24 20V4C24 1.79086 22.2091 0 20 0Z" fill="white"/>
<path d="M16.4219 10.6484H13.125C13 10.6484 12.8828 10.6719 12.7734 10.7188C12.6641 10.7708 12.5703 10.8359 12.4922 10.9141C12.4089 10.9974 12.3438 11.0938 12.2969 11.2031C12.2448 11.3177 12.2188 11.4375 12.2188 11.5625V19H7.28906V10.1328C7.28906 9.64323 7.38281 9.18229 7.57031 8.75C7.75781 8.31771 8.01302 7.9401 8.33594 7.61719C8.65885 7.29427 9.03646 7.03906 9.46875 6.85156C9.90104 6.66406 10.3646 6.57031 10.8594 6.57031H16.4219V10.6484ZM16.4219 15.75H12.5703V12.25H16.4219V15.75Z" fill="#21A25D"/>
</g>
<defs>
<clipPath id="clip0_1469_756">
<rect width="24" height="24" fill="white"/>
</clipPath>
</defs>
</svg>
