<svg width="25" height="24" viewBox="0 0 25 24" fill="none" xmlns="http://www.w3.org/2000/svg">
<path d="M22.375 10H2.375M11.375 14H6.375M2.375 8.2L2.375 15.8C2.375 16.9201 2.375 17.4802 2.59299 17.908C2.78473 18.2843 3.09069 18.5903 3.46702 18.782C3.89484 19 4.45489 19 5.575 19L19.175 19C20.2951 19 20.8552 19 21.283 18.782C21.6593 18.5903 21.9653 18.2843 22.157 17.908C22.375 17.4802 22.375 16.9201 22.375 15.8V8.2C22.375 7.0799 22.375 6.51984 22.157 6.09202C21.9653 5.7157 21.6593 5.40974 21.283 5.21799C20.8552 5 20.2951 5 19.175 5L5.575 5C4.4549 5 3.89484 5 3.46702 5.21799C3.0907 5.40973 2.78473 5.71569 2.59299 6.09202C2.375 6.51984 2.375 7.07989 2.375 8.2Z" stroke="#101013" stroke-opacity="0.3" stroke-width="1.5" stroke-linecap="round" stroke-linejoin="round"/>
</svg>
