<svg width="20" height="21" viewBox="0 0 20 21" fill="none" xmlns="http://www.w3.org/2000/svg">
<path d="M10.8573 1.764C10.506 1.49075 10.3303 1.35412 10.1363 1.3016C9.9652 1.25526 9.7848 1.25526 9.61365 1.3016C9.41968 1.35412 9.24402 1.49075 8.8927 1.764L2.11039 7.03912C1.65702 7.39175 1.43034 7.56806 1.26703 7.78886C1.12237 7.98444 1.0146 8.20478 0.949027 8.43905C0.875 8.70352 0.875 8.9907 0.875 9.56505V16.8C0.875 17.9201 0.875 18.4801 1.09299 18.908C1.28473 19.2843 1.59069 19.5903 1.96702 19.782C2.39484 20 2.9549 20 4.075 20H6.075C6.35503 20 6.49504 20 6.602 19.9455C6.69608 19.8976 6.77257 19.8211 6.8205 19.727C6.875 19.62 6.875 19.48 6.875 19.2V12.6C6.875 12.0399 6.875 11.7599 6.98399 11.546C7.07987 11.3578 7.23285 11.2049 7.42101 11.109C7.63492 11 7.91495 11 8.475 11H11.275C11.8351 11 12.1151 11 12.329 11.109C12.5172 11.2049 12.6701 11.3578 12.766 11.546C12.875 11.7599 12.875 12.0399 12.875 12.6V19.2C12.875 19.48 12.875 19.62 12.9295 19.727C12.9774 19.8211 13.0539 19.8976 13.148 19.9455C13.255 20 13.395 20 13.675 20H15.675C16.7951 20 17.3552 20 17.783 19.782C18.1593 19.5903 18.4653 19.2843 18.657 18.908C18.875 18.4801 18.875 17.9201 18.875 16.8V9.56505C18.875 8.9907 18.875 8.70352 18.801 8.43905C18.7354 8.20478 18.6276 7.98444 18.483 7.78886C18.3197 7.56806 18.093 7.39175 17.6396 7.03913L10.8573 1.764Z" stroke="#101013" stroke-opacity="0.3" stroke-width="1.5" stroke-linecap="round" stroke-linejoin="round"/>
</svg>
