<svg width="23" height="16" viewBox="0 0 23 16" fill="none" xmlns="http://www.w3.org/2000/svg">
<path d="M21.375 6H1.375M10.375 10H5.375M1.375 4.2L1.375 11.8C1.375 12.9201 1.375 13.4802 1.59299 13.908C1.78473 14.2843 2.09069 14.5903 2.46702 14.782C2.89484 15 3.45489 15 4.575 15L18.175 15C19.2951 15 19.8552 15 20.283 14.782C20.6593 14.5903 20.9653 14.2843 21.157 13.908C21.375 13.4802 21.375 12.9201 21.375 11.8V4.2C21.375 3.0799 21.375 2.51984 21.157 2.09202C20.9653 1.7157 20.6593 1.40974 20.283 1.21799C19.8552 1 19.2951 1 18.175 1L4.575 1C3.4549 1 2.89484 1 2.46702 1.21799C2.0907 1.40973 1.78473 1.71569 1.59299 2.09202C1.375 2.51984 1.375 3.07989 1.375 4.2Z" stroke="#21A25D" stroke-width="1.5" stroke-linecap="round" stroke-linejoin="round"/>
</svg>
