<svg width="83" height="68" viewBox="0 0 83 68" fill="none" xmlns="http://www.w3.org/2000/svg">
<path d="M50.625 33L44.6251 27M46.625 22C46.625 25.866 43.491 29 39.625 29C35.759 29 32.625 25.866 32.625 22C32.625 18.134 35.759 15 39.625 15C43.491 15 46.625 18.134 46.625 22Z" stroke="#101013" stroke-opacity="0.3" stroke-width="1.5" stroke-linecap="round" stroke-linejoin="round"/>
<path d="M31.2771 43.2727V52H29.9646V44.3977H25.8567V52H24.5442V43.2727H31.2771ZM35.8254 52.1321C35.2118 52.1321 34.6763 51.9915 34.2189 51.7102C33.7615 51.429 33.4064 51.0355 33.1536 50.5298C32.9007 50.0241 32.7743 49.4332 32.7743 48.7571C32.7743 48.0781 32.9007 47.4844 33.1536 46.9759C33.4064 46.4673 33.7615 46.0724 34.2189 45.7912C34.6763 45.5099 35.2118 45.3693 35.8254 45.3693C36.4391 45.3693 36.9746 45.5099 37.432 45.7912C37.8894 46.0724 38.2445 46.4673 38.4973 46.9759C38.7501 47.4844 38.8766 48.0781 38.8766 48.7571C38.8766 49.4332 38.7501 50.0241 38.4973 50.5298C38.2445 51.0355 37.8894 51.429 37.432 51.7102C36.9746 51.9915 36.4391 52.1321 35.8254 52.1321ZM35.8297 51.0625C36.2274 51.0625 36.557 50.9574 36.8183 50.7472C37.0797 50.5369 37.2729 50.2571 37.3979 49.9077C37.5257 49.5582 37.5896 49.1733 37.5896 48.7528C37.5896 48.3352 37.5257 47.9517 37.3979 47.6023C37.2729 47.25 37.0797 46.9673 36.8183 46.7543C36.557 46.5412 36.2274 46.4347 35.8297 46.4347C35.4291 46.4347 35.0967 46.5412 34.8325 46.7543C34.5712 46.9673 34.3766 47.25 34.2487 47.6023C34.1237 47.9517 34.0612 48.3352 34.0612 48.7528C34.0612 49.1733 34.1237 49.5582 34.2487 49.9077C34.3766 50.2571 34.5712 50.5369 34.8325 50.7472C35.0967 50.9574 35.4291 51.0625 35.8297 51.0625ZM41.4274 50.2145L44.3123 45.4545H45.6845V52H44.4359V47.2358L41.5637 52H40.1788V45.4545H41.4274V50.2145ZM50.0347 52.1321C49.4011 52.1321 48.8557 51.9886 48.3983 51.7017C47.9437 51.4119 47.5943 51.0128 47.35 50.5043C47.1057 49.9957 46.9835 49.4134 46.9835 48.7571C46.9835 48.0923 47.1085 47.5057 47.3585 46.9972C47.6085 46.4858 47.9608 46.0866 48.4153 45.7997C48.8699 45.5128 49.4054 45.3693 50.0219 45.3693C50.519 45.3693 50.9622 45.4616 51.3514 45.6463C51.7406 45.8281 52.0545 46.0838 52.2932 46.4134C52.5347 46.7429 52.6781 47.1278 52.7236 47.5682H51.4835C51.4153 47.2614 51.2591 46.9972 51.0148 46.7756C50.7733 46.554 50.4494 46.4432 50.0432 46.4432C49.6881 46.4432 49.377 46.5369 49.1099 46.7244C48.8457 46.9091 48.6398 47.1733 48.492 47.517C48.3443 47.858 48.2704 48.2614 48.2704 48.7273C48.2704 49.2045 48.3429 49.6165 48.4878 49.9631C48.6327 50.3097 48.8372 50.5781 49.1014 50.7685C49.3685 50.9588 49.6824 51.054 50.0432 51.054C50.2847 51.054 50.5034 51.0099 50.6994 50.9219C50.8983 50.831 51.0645 50.7017 51.198 50.5341C51.3344 50.3665 51.4295 50.1648 51.4835 49.929H52.7236C52.6781 50.3523 52.5403 50.7301 52.3102 51.0625C52.0801 51.3949 51.7719 51.6562 51.3855 51.8466C51.002 52.0369 50.5517 52.1321 50.0347 52.1321ZM53.9661 52V45.4545H55.2403V48.1989H55.8539L58.0144 45.4545H59.5911L57.0556 48.6378L59.621 52H58.04L56.067 49.3835H55.2403V52H53.9661Z" fill="#101013" fill-opacity="0.3"/>
</svg>
