<svg width="38" height="38" viewBox="0 0 38 38" fill="none" xmlns="http://www.w3.org/2000/svg">
<path d="M0 19C0 8.50659 8.50659 0 19 0C29.4934 0 38 8.50659 38 19C38 29.4934 29.4934 38 19 38C8.50659 38 0 29.4934 0 19Z" fill="#21A25D"/>
<path d="M9.26136 25H7.39773L11.5852 13.3636H13.6136L17.8011 25H15.9375L12.6477 15.4773H12.5568L9.26136 25ZM9.57386 20.4432H15.6193V21.9205H9.57386V20.4432ZM20.3045 25H18.4409L22.6284 13.3636H24.6568L28.8443 25H26.9806L23.6909 15.4773H23.5999L20.3045 25ZM20.617 20.4432H26.6624V21.9205H20.617V20.4432Z" fill="white"/>
</svg>
