<svg width="25" height="24" viewBox="0 0 25 24" fill="none" xmlns="http://www.w3.org/2000/svg">
<path d="M20.125 21C20.125 19.6044 20.125 18.9067 19.9528 18.3389C19.565 17.0605 18.5645 16.06 17.2861 15.6722C16.7183 15.5 16.0206 15.5 14.625 15.5H9.625C8.22944 15.5 7.53165 15.5 6.96386 15.6722C5.68545 16.06 4.68504 17.0605 4.29724 18.3389C4.125 18.9067 4.125 19.6044 4.125 21M16.625 7.5C16.625 9.98528 14.6103 12 12.125 12C9.63972 12 7.625 9.98528 7.625 7.5C7.625 5.01472 9.63972 3 12.125 3C14.6103 3 16.625 5.01472 16.625 7.5Z" stroke="#101013" stroke-opacity="0.3" stroke-width="1.5" stroke-linecap="round" stroke-linejoin="round"/>
</svg>
